# xmcd
#
# Track frame offsets: 
#        150
#        19064
#        35507
#        56063
#        75025
#        94356
#        113960
#        144317
#        170778
#        197882
#        217125
#        234554
#        256518
#        269928
#        287681
#        307423
#        329060
#
# Disc length: 4782 seconds
#
# Revision: 1
# Processed by: cddbd v1.5.2PL0 Copyright (c) Steve Scherf et al.
# Submitted via: ExactAudioCopy v1.0b3
#
DISCID=0a12ac11
DTITLE=Chris Rea - Santo Spirito ( blues )
DYEAR=2011
DGENRE=Blues
TTITLE0=Dancing My Blues Away
TTITLE1=Rock And Roll Tonight
TTITLE2=Never Tie Me Down
TTITLE3=The Chance Of Love
TTITLE4=The Last Open Road
TTITLE5=Electric Guitar
TTITLE6=Money
TTITLE7=The Way She Moves
TTITLE8=Dance With Me All Night Long
TTITLE9=Think Like A Woman
TTITLE10=You Got Lucky
TTITLE11=Lose My Heart In You
TTITLE12=I Will Go On
TTITLE13=Santo Spirito
TTITLE14=The Truth
TTITLE15=Dant - s Inferno
TTITLE16=Somewhere Between The Stars
EXTD=
EXTT0=
EXTT1=
EXTT2=
EXTT3=
EXTT4=
EXTT5=
EXTT6=
EXTT7=
EXTT8=
EXTT9=
EXTT10=
EXTT11=
EXTT12=
EXTT13=
EXTT14=
EXTT15=
EXTT16=
PLAYORDER=
